<?xml version="1.0" encoding="UTF-8" standalone="no"?>
<!DOCTYPE svg PUBLIC "-//W3C//DTD SVG 1.1//EN" "http://www.w3.org/Graphics/SVG/1.1/DTD/svg11.dtd">
<svg width="100%" height="100%" viewBox="0 0 792 612" version="1.1" xmlns="http://www.w3.org/2000/svg" xmlns:xlink="http://www.w3.org/1999/xlink" xml:space="preserve" xmlns:serif="http://www.serif.com/" style="fill-rule:evenodd;clip-rule:evenodd;stroke-linecap:round;stroke-linejoin:round;stroke-miterlimit:1.5;">
    <g transform="matrix(0.24,0,0,0.24,0,0)">
        <g id="Base---Body" serif:id="Base / Body" transform="matrix(1,0,0,1.14479,134,-68.3568)">
            <path d="M2798.39,443.393L2798.39,1929.25C2798.39,1982.02 2749.35,2024.86 2688.94,2024.86L341.847,2024.86C281.442,2024.86 232.401,1982.02 232.401,1929.25L232.401,443.393C232.401,390.628 281.442,347.789 341.847,347.789L2688.94,347.789C2749.35,347.789 2798.39,390.628 2798.39,443.393Z" style="fill:rgb(127,127,127);stroke:black;stroke-width:11.63px;"/>
        </g>
        <g id="Knob-Row-1" serif:id="Knob Row 1" transform="matrix(1,0,0,1,133,-1)">
            <g id="Knob" transform="matrix(0.968713,0,0,0.968713,-2494.58,332.506)">
                <path d="M2959.13,137.954C2966.21,128.55 2974.66,120.239 2984.19,113.32L2989.75,123.035L3011.33,110.687L3005.73,100.914C3020.28,94.478 3036.38,90.903 3053.3,90.903C3069.72,90.903 3085.35,94.269 3099.56,100.348L3094.57,109.614L3116.46,121.401L3121.25,112.495C3129.88,118.6 3137.65,125.835 3144.34,133.983L3136.46,139.38L3150.5,159.896L3158.02,154.747C3163.8,165.932 3167.84,178.16 3169.78,191.072L3160.58,191.072L3160.58,225.671L3169.88,225.671C3168.11,237.941 3164.44,249.602 3159.18,260.347L3152.97,256.549L3140,277.756L3145.96,281.403C3139.12,290.1 3131.09,297.813 3122.11,304.292L3118.74,298.401L3097.16,310.749L3100.53,316.631C3089.96,321.267 3078.59,324.395 3066.68,325.744L3066.68,318.855L3041.81,318.855L3041.81,325.943C3030.82,324.877 3020.27,322.298 3010.37,318.417L3013.92,311.822L2992.03,300.035L2988.31,306.94C2979.73,301.249 2971.93,294.463 2965.13,286.782L2972.03,282.056L2957.99,261.541L2950.68,266.545C2943.66,254.14 2938.84,240.341 2936.72,225.671L2947.39,225.671L2947.39,191.072L2936.81,191.072C2938.49,179.884 2941.75,169.21 2946.35,159.282L2955.51,164.887L2968.49,143.68L2959.13,137.954Z" style="fill:rgb(60,60,60);stroke:black;stroke-width:6.45px;"/>
                <g transform="matrix(1,0,0,1,197.829,33.7836)">
                    <rect x="2843.98" y="43.071" width="24.861" height="55.726" style="fill:rgb(174,1,0);stroke:black;stroke-width:4.3px;"/>
                </g>
            </g>
            <g id="Knob1" serif:id="Knob" transform="matrix(0.968713,0,0,0.968713,-2184.6,332.506)">
                <path d="M2959.13,137.954C2966.21,128.55 2974.66,120.239 2984.19,113.32L2989.75,123.035L3011.33,110.687L3005.73,100.914C3020.28,94.478 3036.38,90.903 3053.3,90.903C3069.72,90.903 3085.35,94.269 3099.56,100.348L3094.57,109.614L3116.46,121.401L3121.25,112.495C3129.88,118.6 3137.65,125.835 3144.34,133.983L3136.46,139.38L3150.5,159.896L3158.02,154.747C3163.8,165.932 3167.84,178.16 3169.78,191.072L3160.58,191.072L3160.58,225.671L3169.88,225.671C3168.11,237.941 3164.44,249.602 3159.18,260.347L3152.97,256.549L3140,277.756L3145.96,281.403C3139.12,290.1 3131.09,297.813 3122.11,304.292L3118.74,298.401L3097.16,310.749L3100.53,316.631C3089.96,321.267 3078.59,324.395 3066.68,325.744L3066.68,318.855L3041.81,318.855L3041.81,325.943C3030.82,324.877 3020.27,322.298 3010.37,318.417L3013.92,311.822L2992.03,300.035L2988.31,306.94C2979.73,301.249 2971.93,294.463 2965.13,286.782L2972.03,282.056L2957.99,261.541L2950.68,266.545C2943.66,254.14 2938.84,240.341 2936.72,225.671L2947.39,225.671L2947.39,191.072L2936.81,191.072C2938.49,179.884 2941.75,169.21 2946.35,159.282L2955.51,164.887L2968.49,143.68L2959.13,137.954Z" style="fill:rgb(60,60,60);stroke:black;stroke-width:6.45px;"/>
                <g transform="matrix(1,0,0,1,197.829,33.7836)">
                    <rect x="2843.98" y="43.071" width="24.861" height="55.726" style="fill:rgb(174,1,0);stroke:black;stroke-width:4.3px;"/>
                </g>
            </g>
            <g id="Knob2" serif:id="Knob" transform="matrix(0.968713,0,0,0.968713,-1884.29,332.506)">
                <path d="M2959.13,137.954C2966.21,128.55 2974.66,120.239 2984.19,113.32L2989.75,123.035L3011.33,110.687L3005.73,100.914C3020.28,94.478 3036.38,90.903 3053.3,90.903C3069.72,90.903 3085.35,94.269 3099.56,100.348L3094.57,109.614L3116.46,121.401L3121.25,112.495C3129.88,118.6 3137.65,125.835 3144.34,133.983L3136.46,139.38L3150.5,159.896L3158.02,154.747C3163.8,165.932 3167.84,178.16 3169.78,191.072L3160.58,191.072L3160.58,225.671L3169.88,225.671C3168.11,237.941 3164.44,249.602 3159.18,260.347L3152.97,256.549L3140,277.756L3145.96,281.403C3139.12,290.1 3131.09,297.813 3122.11,304.292L3118.74,298.401L3097.16,310.749L3100.53,316.631C3089.96,321.267 3078.59,324.395 3066.68,325.744L3066.68,318.855L3041.81,318.855L3041.81,325.943C3030.82,324.877 3020.27,322.298 3010.37,318.417L3013.92,311.822L2992.03,300.035L2988.31,306.94C2979.73,301.249 2971.93,294.463 2965.13,286.782L2972.03,282.056L2957.99,261.541L2950.68,266.545C2943.66,254.14 2938.84,240.341 2936.72,225.671L2947.39,225.671L2947.39,191.072L2936.81,191.072C2938.49,179.884 2941.75,169.21 2946.35,159.282L2955.51,164.887L2968.49,143.68L2959.13,137.954Z" style="fill:rgb(60,60,60);stroke:black;stroke-width:6.45px;"/>
                <g transform="matrix(1,0,0,1,197.829,33.7836)">
                    <rect x="2843.98" y="43.071" width="24.861" height="55.726" style="fill:rgb(174,1,0);stroke:black;stroke-width:4.3px;"/>
                </g>
            </g>
            <g id="Knob3" serif:id="Knob" transform="matrix(0.968713,0,0,0.968713,-1574.31,332.506)">
                <path d="M2959.13,137.954C2966.21,128.55 2974.66,120.239 2984.19,113.32L2989.75,123.035L3011.33,110.687L3005.73,100.914C3020.28,94.478 3036.38,90.903 3053.3,90.903C3069.72,90.903 3085.35,94.269 3099.56,100.348L3094.57,109.614L3116.46,121.401L3121.25,112.495C3129.88,118.6 3137.65,125.835 3144.34,133.983L3136.46,139.38L3150.5,159.896L3158.02,154.747C3163.8,165.932 3167.84,178.16 3169.78,191.072L3160.58,191.072L3160.58,225.671L3169.88,225.671C3168.11,237.941 3164.44,249.602 3159.18,260.347L3152.97,256.549L3140,277.756L3145.96,281.403C3139.12,290.1 3131.09,297.813 3122.11,304.292L3118.74,298.401L3097.16,310.749L3100.53,316.631C3089.96,321.267 3078.59,324.395 3066.68,325.744L3066.68,318.855L3041.81,318.855L3041.81,325.943C3030.82,324.877 3020.27,322.298 3010.37,318.417L3013.92,311.822L2992.03,300.035L2988.31,306.94C2979.73,301.249 2971.93,294.463 2965.13,286.782L2972.03,282.056L2957.99,261.541L2950.68,266.545C2943.66,254.14 2938.84,240.341 2936.72,225.671L2947.39,225.671L2947.39,191.072L2936.81,191.072C2938.49,179.884 2941.75,169.21 2946.35,159.282L2955.51,164.887L2968.49,143.68L2959.13,137.954Z" style="fill:rgb(60,60,60);stroke:black;stroke-width:6.45px;"/>
                <g transform="matrix(1,0,0,1,197.829,33.7836)">
                    <rect x="2843.98" y="43.071" width="24.861" height="55.726" style="fill:rgb(174,1,0);stroke:black;stroke-width:4.3px;"/>
                </g>
            </g>
            <g id="Knob4" serif:id="Knob" transform="matrix(0.968713,0,0,0.968713,-1283.69,332.506)">
                <path d="M2959.13,137.954C2966.21,128.55 2974.66,120.239 2984.19,113.32L2989.75,123.035L3011.33,110.687L3005.73,100.914C3020.28,94.478 3036.38,90.903 3053.3,90.903C3069.72,90.903 3085.35,94.269 3099.56,100.348L3094.57,109.614L3116.46,121.401L3121.25,112.495C3129.88,118.6 3137.65,125.835 3144.34,133.983L3136.46,139.38L3150.5,159.896L3158.02,154.747C3163.8,165.932 3167.84,178.16 3169.78,191.072L3160.58,191.072L3160.58,225.671L3169.88,225.671C3168.11,237.941 3164.44,249.602 3159.18,260.347L3152.97,256.549L3140,277.756L3145.96,281.403C3139.12,290.1 3131.09,297.813 3122.11,304.292L3118.74,298.401L3097.16,310.749L3100.53,316.631C3089.96,321.267 3078.59,324.395 3066.68,325.744L3066.68,318.855L3041.81,318.855L3041.81,325.943C3030.82,324.877 3020.27,322.298 3010.37,318.417L3013.92,311.822L2992.03,300.035L2988.31,306.94C2979.73,301.249 2971.93,294.463 2965.13,286.782L2972.03,282.056L2957.99,261.541L2950.68,266.545C2943.66,254.14 2938.84,240.341 2936.72,225.671L2947.39,225.671L2947.39,191.072L2936.81,191.072C2938.49,179.884 2941.75,169.21 2946.35,159.282L2955.51,164.887L2968.49,143.68L2959.13,137.954Z" style="fill:rgb(60,60,60);stroke:black;stroke-width:6.45px;"/>
                <g transform="matrix(1,0,0,1,197.829,33.7836)">
                    <rect x="2843.98" y="43.071" width="24.861" height="55.726" style="fill:rgb(174,1,0);stroke:black;stroke-width:4.3px;"/>
                </g>
            </g>
            <g id="Knob5" serif:id="Knob" transform="matrix(0.968713,0,0,0.968713,-973.705,332.506)">
                <path d="M2959.13,137.954C2966.21,128.55 2974.66,120.239 2984.19,113.32L2989.75,123.035L3011.33,110.687L3005.73,100.914C3020.28,94.478 3036.38,90.903 3053.3,90.903C3069.72,90.903 3085.35,94.269 3099.56,100.348L3094.57,109.614L3116.46,121.401L3121.25,112.495C3129.88,118.6 3137.65,125.835 3144.34,133.983L3136.46,139.38L3150.5,159.896L3158.02,154.747C3163.8,165.932 3167.84,178.16 3169.78,191.072L3160.58,191.072L3160.58,225.671L3169.88,225.671C3168.11,237.941 3164.44,249.602 3159.18,260.347L3152.97,256.549L3140,277.756L3145.96,281.403C3139.12,290.1 3131.09,297.813 3122.11,304.292L3118.74,298.401L3097.16,310.749L3100.53,316.631C3089.96,321.267 3078.59,324.395 3066.68,325.744L3066.68,318.855L3041.81,318.855L3041.81,325.943C3030.82,324.877 3020.27,322.298 3010.37,318.417L3013.92,311.822L2992.03,300.035L2988.31,306.94C2979.73,301.249 2971.93,294.463 2965.13,286.782L2972.03,282.056L2957.99,261.541L2950.68,266.545C2943.66,254.14 2938.84,240.341 2936.72,225.671L2947.39,225.671L2947.39,191.072L2936.81,191.072C2938.49,179.884 2941.75,169.21 2946.35,159.282L2955.51,164.887L2968.49,143.68L2959.13,137.954Z" style="fill:rgb(60,60,60);stroke:black;stroke-width:6.45px;"/>
                <g transform="matrix(1,0,0,1,197.829,33.7836)">
                    <rect x="2843.98" y="43.071" width="24.861" height="55.726" style="fill:rgb(174,1,0);stroke:black;stroke-width:4.3px;"/>
                </g>
            </g>
            <g id="Knob6" serif:id="Knob" transform="matrix(0.968713,0,0,0.968713,-673.404,332.506)">
                <path d="M2959.13,137.954C2966.21,128.55 2974.66,120.239 2984.19,113.32L2989.75,123.035L3011.33,110.687L3005.73,100.914C3020.28,94.478 3036.38,90.903 3053.3,90.903C3069.72,90.903 3085.35,94.269 3099.56,100.348L3094.57,109.614L3116.46,121.401L3121.25,112.495C3129.88,118.6 3137.65,125.835 3144.34,133.983L3136.46,139.38L3150.5,159.896L3158.02,154.747C3163.8,165.932 3167.84,178.16 3169.78,191.072L3160.58,191.072L3160.58,225.671L3169.88,225.671C3168.11,237.941 3164.44,249.602 3159.18,260.347L3152.97,256.549L3140,277.756L3145.96,281.403C3139.12,290.1 3131.09,297.813 3122.11,304.292L3118.74,298.401L3097.16,310.749L3100.53,316.631C3089.96,321.267 3078.59,324.395 3066.68,325.744L3066.68,318.855L3041.81,318.855L3041.81,325.943C3030.82,324.877 3020.27,322.298 3010.37,318.417L3013.92,311.822L2992.03,300.035L2988.31,306.94C2979.73,301.249 2971.93,294.463 2965.13,286.782L2972.03,282.056L2957.99,261.541L2950.68,266.545C2943.66,254.14 2938.84,240.341 2936.72,225.671L2947.39,225.671L2947.39,191.072L2936.81,191.072C2938.49,179.884 2941.75,169.21 2946.35,159.282L2955.51,164.887L2968.49,143.68L2959.13,137.954Z" style="fill:rgb(60,60,60);stroke:black;stroke-width:6.45px;"/>
                <g transform="matrix(1,0,0,1,197.829,33.7836)">
                    <rect x="2843.98" y="43.071" width="24.861" height="55.726" style="fill:rgb(174,1,0);stroke:black;stroke-width:4.3px;"/>
                </g>
            </g>
            <g id="Knob7" serif:id="Knob" transform="matrix(0.968713,0,0,0.968713,-363.416,332.506)">
                <path d="M2959.13,137.954C2966.21,128.55 2974.66,120.239 2984.19,113.32L2989.75,123.035L3011.33,110.687L3005.73,100.914C3020.28,94.478 3036.38,90.903 3053.3,90.903C3069.72,90.903 3085.35,94.269 3099.56,100.348L3094.57,109.614L3116.46,121.401L3121.25,112.495C3129.88,118.6 3137.65,125.835 3144.34,133.983L3136.46,139.38L3150.5,159.896L3158.02,154.747C3163.8,165.932 3167.84,178.16 3169.78,191.072L3160.58,191.072L3160.58,225.671L3169.88,225.671C3168.11,237.941 3164.44,249.602 3159.18,260.347L3152.97,256.549L3140,277.756L3145.96,281.403C3139.12,290.1 3131.09,297.813 3122.11,304.292L3118.74,298.401L3097.16,310.749L3100.53,316.631C3089.96,321.267 3078.59,324.395 3066.68,325.744L3066.68,318.855L3041.81,318.855L3041.81,325.943C3030.82,324.877 3020.27,322.298 3010.37,318.417L3013.92,311.822L2992.03,300.035L2988.31,306.94C2979.73,301.249 2971.93,294.463 2965.13,286.782L2972.03,282.056L2957.99,261.541L2950.68,266.545C2943.66,254.14 2938.84,240.341 2936.72,225.671L2947.39,225.671L2947.39,191.072L2936.81,191.072C2938.49,179.884 2941.75,169.21 2946.35,159.282L2955.51,164.887L2968.49,143.68L2959.13,137.954Z" style="fill:rgb(60,60,60);stroke:black;stroke-width:6.45px;"/>
                <g transform="matrix(1,0,0,1,197.829,33.7836)">
                    <rect x="2843.98" y="43.071" width="24.861" height="55.726" style="fill:rgb(174,1,0);stroke:black;stroke-width:4.3px;"/>
                </g>
            </g>
        </g>
        <g id="Knob-Row-2" serif:id="Knob Row 2" transform="matrix(1,0,0,1,133,360)">
            <g id="Knob8" serif:id="Knob" transform="matrix(0.968713,0,0,0.968713,-2494.58,332.506)">
                <path d="M2959.13,137.954C2966.21,128.55 2974.66,120.239 2984.19,113.32L2989.75,123.035L3011.33,110.687L3005.73,100.914C3020.28,94.478 3036.38,90.903 3053.3,90.903C3069.72,90.903 3085.35,94.269 3099.56,100.348L3094.57,109.614L3116.46,121.401L3121.25,112.495C3129.88,118.6 3137.65,125.835 3144.34,133.983L3136.46,139.38L3150.5,159.896L3158.02,154.747C3163.8,165.932 3167.84,178.16 3169.78,191.072L3160.58,191.072L3160.58,225.671L3169.88,225.671C3168.11,237.941 3164.44,249.602 3159.18,260.347L3152.97,256.549L3140,277.756L3145.96,281.403C3139.12,290.1 3131.09,297.813 3122.11,304.292L3118.74,298.401L3097.16,310.749L3100.53,316.631C3089.96,321.267 3078.59,324.395 3066.68,325.744L3066.68,318.855L3041.81,318.855L3041.81,325.943C3030.82,324.877 3020.27,322.298 3010.37,318.417L3013.92,311.822L2992.03,300.035L2988.31,306.94C2979.73,301.249 2971.93,294.463 2965.13,286.782L2972.03,282.056L2957.99,261.541L2950.68,266.545C2943.66,254.14 2938.84,240.341 2936.72,225.671L2947.39,225.671L2947.39,191.072L2936.81,191.072C2938.49,179.884 2941.75,169.21 2946.35,159.282L2955.51,164.887L2968.49,143.68L2959.13,137.954Z" style="fill:rgb(60,60,60);stroke:black;stroke-width:6.45px;"/>
                <g transform="matrix(1,0,0,1,197.829,33.7836)">
                    <rect x="2843.98" y="43.071" width="24.861" height="55.726" style="fill:rgb(174,1,0);stroke:black;stroke-width:4.3px;"/>
                </g>
            </g>
            <g id="Knob9" serif:id="Knob" transform="matrix(0.968713,0,0,0.968713,-2184.6,332.506)">
                <path d="M2959.13,137.954C2966.21,128.55 2974.66,120.239 2984.19,113.32L2989.75,123.035L3011.33,110.687L3005.73,100.914C3020.28,94.478 3036.38,90.903 3053.3,90.903C3069.72,90.903 3085.35,94.269 3099.56,100.348L3094.57,109.614L3116.46,121.401L3121.25,112.495C3129.88,118.6 3137.65,125.835 3144.34,133.983L3136.46,139.38L3150.5,159.896L3158.02,154.747C3163.8,165.932 3167.84,178.16 3169.78,191.072L3160.58,191.072L3160.58,225.671L3169.88,225.671C3168.11,237.941 3164.44,249.602 3159.18,260.347L3152.97,256.549L3140,277.756L3145.96,281.403C3139.12,290.1 3131.09,297.813 3122.11,304.292L3118.74,298.401L3097.16,310.749L3100.53,316.631C3089.96,321.267 3078.59,324.395 3066.68,325.744L3066.68,318.855L3041.81,318.855L3041.81,325.943C3030.82,324.877 3020.27,322.298 3010.37,318.417L3013.92,311.822L2992.03,300.035L2988.31,306.94C2979.73,301.249 2971.93,294.463 2965.13,286.782L2972.03,282.056L2957.99,261.541L2950.68,266.545C2943.66,254.14 2938.84,240.341 2936.72,225.671L2947.39,225.671L2947.39,191.072L2936.81,191.072C2938.49,179.884 2941.75,169.21 2946.35,159.282L2955.51,164.887L2968.49,143.68L2959.13,137.954Z" style="fill:rgb(60,60,60);stroke:black;stroke-width:6.45px;"/>
                <g transform="matrix(1,0,0,1,197.829,33.7836)">
                    <rect x="2843.98" y="43.071" width="24.861" height="55.726" style="fill:rgb(174,1,0);stroke:black;stroke-width:4.3px;"/>
                </g>
            </g>
            <g id="Knob10" serif:id="Knob" transform="matrix(0.968713,0,0,0.968713,-1884.29,332.506)">
                <path d="M2959.13,137.954C2966.21,128.55 2974.66,120.239 2984.19,113.32L2989.75,123.035L3011.33,110.687L3005.73,100.914C3020.28,94.478 3036.38,90.903 3053.3,90.903C3069.72,90.903 3085.35,94.269 3099.56,100.348L3094.57,109.614L3116.46,121.401L3121.25,112.495C3129.88,118.6 3137.65,125.835 3144.34,133.983L3136.46,139.38L3150.5,159.896L3158.02,154.747C3163.8,165.932 3167.84,178.16 3169.78,191.072L3160.58,191.072L3160.58,225.671L3169.88,225.671C3168.11,237.941 3164.44,249.602 3159.18,260.347L3152.97,256.549L3140,277.756L3145.96,281.403C3139.12,290.1 3131.09,297.813 3122.11,304.292L3118.74,298.401L3097.16,310.749L3100.53,316.631C3089.96,321.267 3078.59,324.395 3066.68,325.744L3066.68,318.855L3041.81,318.855L3041.81,325.943C3030.82,324.877 3020.27,322.298 3010.37,318.417L3013.92,311.822L2992.03,300.035L2988.31,306.94C2979.73,301.249 2971.93,294.463 2965.13,286.782L2972.03,282.056L2957.99,261.541L2950.68,266.545C2943.66,254.14 2938.84,240.341 2936.72,225.671L2947.39,225.671L2947.39,191.072L2936.81,191.072C2938.49,179.884 2941.75,169.21 2946.35,159.282L2955.51,164.887L2968.49,143.68L2959.13,137.954Z" style="fill:rgb(60,60,60);stroke:black;stroke-width:6.45px;"/>
                <g transform="matrix(1,0,0,1,197.829,33.7836)">
                    <rect x="2843.98" y="43.071" width="24.861" height="55.726" style="fill:rgb(174,1,0);stroke:black;stroke-width:4.3px;"/>
                </g>
            </g>
            <g id="Knob11" serif:id="Knob" transform="matrix(0.968713,0,0,0.968713,-1574.31,332.506)">
                <path d="M2959.13,137.954C2966.21,128.55 2974.66,120.239 2984.19,113.32L2989.75,123.035L3011.33,110.687L3005.73,100.914C3020.28,94.478 3036.38,90.903 3053.3,90.903C3069.72,90.903 3085.35,94.269 3099.56,100.348L3094.57,109.614L3116.46,121.401L3121.25,112.495C3129.88,118.6 3137.65,125.835 3144.34,133.983L3136.46,139.38L3150.5,159.896L3158.02,154.747C3163.8,165.932 3167.84,178.16 3169.78,191.072L3160.58,191.072L3160.58,225.671L3169.88,225.671C3168.11,237.941 3164.44,249.602 3159.18,260.347L3152.97,256.549L3140,277.756L3145.96,281.403C3139.12,290.1 3131.09,297.813 3122.11,304.292L3118.74,298.401L3097.16,310.749L3100.53,316.631C3089.96,321.267 3078.59,324.395 3066.68,325.744L3066.68,318.855L3041.81,318.855L3041.81,325.943C3030.82,324.877 3020.27,322.298 3010.37,318.417L3013.92,311.822L2992.03,300.035L2988.31,306.94C2979.73,301.249 2971.93,294.463 2965.13,286.782L2972.03,282.056L2957.99,261.541L2950.68,266.545C2943.66,254.14 2938.84,240.341 2936.72,225.671L2947.39,225.671L2947.39,191.072L2936.81,191.072C2938.49,179.884 2941.75,169.21 2946.35,159.282L2955.51,164.887L2968.49,143.68L2959.13,137.954Z" style="fill:rgb(60,60,60);stroke:black;stroke-width:6.45px;"/>
                <g transform="matrix(1,0,0,1,197.829,33.7836)">
                    <rect x="2843.98" y="43.071" width="24.861" height="55.726" style="fill:rgb(174,1,0);stroke:black;stroke-width:4.3px;"/>
                </g>
            </g>
            <g id="Knob12" serif:id="Knob" transform="matrix(0.968713,0,0,0.968713,-1283.69,332.506)">
                <path d="M2959.13,137.954C2966.21,128.55 2974.66,120.239 2984.19,113.32L2989.75,123.035L3011.33,110.687L3005.73,100.914C3020.28,94.478 3036.38,90.903 3053.3,90.903C3069.72,90.903 3085.35,94.269 3099.56,100.348L3094.57,109.614L3116.46,121.401L3121.25,112.495C3129.88,118.6 3137.65,125.835 3144.34,133.983L3136.46,139.38L3150.5,159.896L3158.02,154.747C3163.8,165.932 3167.84,178.16 3169.78,191.072L3160.58,191.072L3160.58,225.671L3169.88,225.671C3168.11,237.941 3164.44,249.602 3159.18,260.347L3152.97,256.549L3140,277.756L3145.96,281.403C3139.12,290.1 3131.09,297.813 3122.11,304.292L3118.74,298.401L3097.16,310.749L3100.53,316.631C3089.96,321.267 3078.59,324.395 3066.68,325.744L3066.68,318.855L3041.81,318.855L3041.81,325.943C3030.82,324.877 3020.27,322.298 3010.37,318.417L3013.92,311.822L2992.03,300.035L2988.31,306.94C2979.73,301.249 2971.93,294.463 2965.13,286.782L2972.03,282.056L2957.99,261.541L2950.68,266.545C2943.66,254.14 2938.84,240.341 2936.72,225.671L2947.39,225.671L2947.39,191.072L2936.81,191.072C2938.49,179.884 2941.75,169.21 2946.35,159.282L2955.51,164.887L2968.49,143.68L2959.13,137.954Z" style="fill:rgb(60,60,60);stroke:black;stroke-width:6.45px;"/>
                <g transform="matrix(1,0,0,1,197.829,33.7836)">
                    <rect x="2843.98" y="43.071" width="24.861" height="55.726" style="fill:rgb(174,1,0);stroke:black;stroke-width:4.3px;"/>
                </g>
            </g>
            <g id="Knob13" serif:id="Knob" transform="matrix(0.968713,0,0,0.968713,-973.705,332.506)">
                <path d="M2959.13,137.954C2966.21,128.55 2974.66,120.239 2984.19,113.32L2989.75,123.035L3011.33,110.687L3005.73,100.914C3020.28,94.478 3036.38,90.903 3053.3,90.903C3069.72,90.903 3085.35,94.269 3099.56,100.348L3094.57,109.614L3116.46,121.401L3121.25,112.495C3129.88,118.6 3137.65,125.835 3144.34,133.983L3136.46,139.38L3150.5,159.896L3158.02,154.747C3163.8,165.932 3167.84,178.16 3169.78,191.072L3160.58,191.072L3160.58,225.671L3169.88,225.671C3168.11,237.941 3164.44,249.602 3159.18,260.347L3152.97,256.549L3140,277.756L3145.96,281.403C3139.12,290.1 3131.09,297.813 3122.11,304.292L3118.74,298.401L3097.16,310.749L3100.53,316.631C3089.96,321.267 3078.59,324.395 3066.68,325.744L3066.68,318.855L3041.81,318.855L3041.81,325.943C3030.82,324.877 3020.27,322.298 3010.37,318.417L3013.92,311.822L2992.03,300.035L2988.31,306.94C2979.73,301.249 2971.93,294.463 2965.13,286.782L2972.03,282.056L2957.99,261.541L2950.68,266.545C2943.66,254.14 2938.84,240.341 2936.72,225.671L2947.39,225.671L2947.39,191.072L2936.81,191.072C2938.49,179.884 2941.75,169.21 2946.35,159.282L2955.51,164.887L2968.49,143.68L2959.13,137.954Z" style="fill:rgb(60,60,60);stroke:black;stroke-width:6.45px;"/>
                <g transform="matrix(1,0,0,1,197.829,33.7836)">
                    <rect x="2843.98" y="43.071" width="24.861" height="55.726" style="fill:rgb(174,1,0);stroke:black;stroke-width:4.3px;"/>
                </g>
            </g>
            <g id="Knob14" serif:id="Knob" transform="matrix(0.968713,0,0,0.968713,-673.404,332.506)">
                <path d="M2959.13,137.954C2966.21,128.55 2974.66,120.239 2984.19,113.32L2989.75,123.035L3011.33,110.687L3005.73,100.914C3020.28,94.478 3036.38,90.903 3053.3,90.903C3069.72,90.903 3085.35,94.269 3099.56,100.348L3094.57,109.614L3116.46,121.401L3121.25,112.495C3129.88,118.6 3137.65,125.835 3144.34,133.983L3136.46,139.38L3150.5,159.896L3158.02,154.747C3163.8,165.932 3167.84,178.16 3169.78,191.072L3160.58,191.072L3160.58,225.671L3169.88,225.671C3168.11,237.941 3164.44,249.602 3159.18,260.347L3152.97,256.549L3140,277.756L3145.96,281.403C3139.12,290.1 3131.09,297.813 3122.11,304.292L3118.74,298.401L3097.16,310.749L3100.53,316.631C3089.96,321.267 3078.59,324.395 3066.68,325.744L3066.68,318.855L3041.81,318.855L3041.81,325.943C3030.82,324.877 3020.27,322.298 3010.37,318.417L3013.92,311.822L2992.03,300.035L2988.31,306.94C2979.73,301.249 2971.93,294.463 2965.13,286.782L2972.03,282.056L2957.99,261.541L2950.68,266.545C2943.66,254.14 2938.84,240.341 2936.72,225.671L2947.39,225.671L2947.39,191.072L2936.81,191.072C2938.49,179.884 2941.75,169.21 2946.35,159.282L2955.51,164.887L2968.49,143.68L2959.13,137.954Z" style="fill:rgb(60,60,60);stroke:black;stroke-width:6.45px;"/>
                <g transform="matrix(1,0,0,1,197.829,33.7836)">
                    <rect x="2843.98" y="43.071" width="24.861" height="55.726" style="fill:rgb(174,1,0);stroke:black;stroke-width:4.3px;"/>
                </g>
            </g>
            <g id="Knob15" serif:id="Knob" transform="matrix(0.968713,0,0,0.968713,-363.416,332.506)">
                <path d="M2959.13,137.954C2966.21,128.55 2974.66,120.239 2984.19,113.32L2989.75,123.035L3011.33,110.687L3005.73,100.914C3020.28,94.478 3036.38,90.903 3053.3,90.903C3069.72,90.903 3085.35,94.269 3099.56,100.348L3094.57,109.614L3116.46,121.401L3121.25,112.495C3129.88,118.6 3137.65,125.835 3144.34,133.983L3136.46,139.38L3150.5,159.896L3158.02,154.747C3163.8,165.932 3167.84,178.16 3169.78,191.072L3160.58,191.072L3160.58,225.671L3169.88,225.671C3168.11,237.941 3164.44,249.602 3159.18,260.347L3152.97,256.549L3140,277.756L3145.96,281.403C3139.12,290.1 3131.09,297.813 3122.11,304.292L3118.74,298.401L3097.16,310.749L3100.53,316.631C3089.96,321.267 3078.59,324.395 3066.68,325.744L3066.68,318.855L3041.81,318.855L3041.81,325.943C3030.82,324.877 3020.27,322.298 3010.37,318.417L3013.92,311.822L2992.03,300.035L2988.31,306.94C2979.73,301.249 2971.93,294.463 2965.13,286.782L2972.03,282.056L2957.99,261.541L2950.68,266.545C2943.66,254.14 2938.84,240.341 2936.72,225.671L2947.39,225.671L2947.39,191.072L2936.81,191.072C2938.49,179.884 2941.75,169.21 2946.35,159.282L2955.51,164.887L2968.49,143.68L2959.13,137.954Z" style="fill:rgb(60,60,60);stroke:black;stroke-width:6.45px;"/>
                <g transform="matrix(1,0,0,1,197.829,33.7836)">
                    <rect x="2843.98" y="43.071" width="24.861" height="55.726" style="fill:rgb(174,1,0);stroke:black;stroke-width:4.3px;"/>
                </g>
            </g>
        </g>
        <g id="Knob-Row-3" serif:id="Knob Row 3" transform="matrix(1,0,0,1,133,721)">
            <g id="Knob16" serif:id="Knob" transform="matrix(0.968713,0,0,0.968713,-2494.58,332.506)">
                <path d="M2959.13,137.954C2966.21,128.55 2974.66,120.239 2984.19,113.32L2989.75,123.035L3011.33,110.687L3005.73,100.914C3020.28,94.478 3036.38,90.903 3053.3,90.903C3069.72,90.903 3085.35,94.269 3099.56,100.348L3094.57,109.614L3116.46,121.401L3121.25,112.495C3129.88,118.6 3137.65,125.835 3144.34,133.983L3136.46,139.38L3150.5,159.896L3158.02,154.747C3163.8,165.932 3167.84,178.16 3169.78,191.072L3160.58,191.072L3160.58,225.671L3169.88,225.671C3168.11,237.941 3164.44,249.602 3159.18,260.347L3152.97,256.549L3140,277.756L3145.96,281.403C3139.12,290.1 3131.09,297.813 3122.11,304.292L3118.74,298.401L3097.16,310.749L3100.53,316.631C3089.96,321.267 3078.59,324.395 3066.68,325.744L3066.68,318.855L3041.81,318.855L3041.81,325.943C3030.82,324.877 3020.27,322.298 3010.37,318.417L3013.92,311.822L2992.03,300.035L2988.31,306.94C2979.73,301.249 2971.93,294.463 2965.13,286.782L2972.03,282.056L2957.99,261.541L2950.68,266.545C2943.66,254.14 2938.84,240.341 2936.72,225.671L2947.39,225.671L2947.39,191.072L2936.81,191.072C2938.49,179.884 2941.75,169.21 2946.35,159.282L2955.51,164.887L2968.49,143.68L2959.13,137.954Z" style="fill:rgb(60,60,60);stroke:black;stroke-width:6.45px;"/>
                <g transform="matrix(1,0,0,1,197.829,33.7836)">
                    <rect x="2843.98" y="43.071" width="24.861" height="55.726" style="fill:rgb(174,1,0);stroke:black;stroke-width:4.3px;"/>
                </g>
            </g>
            <g id="Knob17" serif:id="Knob" transform="matrix(0.968713,0,0,0.968713,-2184.6,332.506)">
                <path d="M2959.13,137.954C2966.21,128.55 2974.66,120.239 2984.19,113.32L2989.75,123.035L3011.33,110.687L3005.73,100.914C3020.28,94.478 3036.38,90.903 3053.3,90.903C3069.72,90.903 3085.35,94.269 3099.56,100.348L3094.57,109.614L3116.46,121.401L3121.25,112.495C3129.88,118.6 3137.65,125.835 3144.34,133.983L3136.46,139.38L3150.5,159.896L3158.02,154.747C3163.8,165.932 3167.84,178.16 3169.78,191.072L3160.58,191.072L3160.58,225.671L3169.88,225.671C3168.11,237.941 3164.44,249.602 3159.18,260.347L3152.97,256.549L3140,277.756L3145.96,281.403C3139.12,290.1 3131.09,297.813 3122.11,304.292L3118.74,298.401L3097.16,310.749L3100.53,316.631C3089.96,321.267 3078.59,324.395 3066.68,325.744L3066.68,318.855L3041.81,318.855L3041.81,325.943C3030.82,324.877 3020.27,322.298 3010.37,318.417L3013.92,311.822L2992.03,300.035L2988.31,306.94C2979.73,301.249 2971.93,294.463 2965.13,286.782L2972.03,282.056L2957.99,261.541L2950.68,266.545C2943.66,254.14 2938.84,240.341 2936.72,225.671L2947.39,225.671L2947.39,191.072L2936.81,191.072C2938.49,179.884 2941.75,169.21 2946.35,159.282L2955.51,164.887L2968.49,143.68L2959.13,137.954Z" style="fill:rgb(60,60,60);stroke:black;stroke-width:6.45px;"/>
                <g transform="matrix(1,0,0,1,197.829,33.7836)">
                    <rect x="2843.98" y="43.071" width="24.861" height="55.726" style="fill:rgb(174,1,0);stroke:black;stroke-width:4.3px;"/>
                </g>
            </g>
            <g id="Knob18" serif:id="Knob" transform="matrix(0.968713,0,0,0.968713,-1884.29,332.506)">
                <path d="M2959.13,137.954C2966.21,128.55 2974.66,120.239 2984.19,113.32L2989.75,123.035L3011.33,110.687L3005.73,100.914C3020.28,94.478 3036.38,90.903 3053.3,90.903C3069.72,90.903 3085.35,94.269 3099.56,100.348L3094.57,109.614L3116.46,121.401L3121.25,112.495C3129.88,118.6 3137.65,125.835 3144.34,133.983L3136.46,139.38L3150.5,159.896L3158.02,154.747C3163.8,165.932 3167.84,178.16 3169.78,191.072L3160.58,191.072L3160.58,225.671L3169.88,225.671C3168.11,237.941 3164.44,249.602 3159.18,260.347L3152.97,256.549L3140,277.756L3145.96,281.403C3139.12,290.1 3131.09,297.813 3122.11,304.292L3118.74,298.401L3097.16,310.749L3100.53,316.631C3089.96,321.267 3078.59,324.395 3066.68,325.744L3066.68,318.855L3041.81,318.855L3041.81,325.943C3030.82,324.877 3020.27,322.298 3010.37,318.417L3013.92,311.822L2992.03,300.035L2988.31,306.94C2979.73,301.249 2971.93,294.463 2965.13,286.782L2972.03,282.056L2957.99,261.541L2950.68,266.545C2943.66,254.14 2938.84,240.341 2936.72,225.671L2947.39,225.671L2947.39,191.072L2936.81,191.072C2938.49,179.884 2941.75,169.21 2946.35,159.282L2955.51,164.887L2968.49,143.68L2959.13,137.954Z" style="fill:rgb(60,60,60);stroke:black;stroke-width:6.45px;"/>
                <g transform="matrix(1,0,0,1,197.829,33.7836)">
                    <rect x="2843.98" y="43.071" width="24.861" height="55.726" style="fill:rgb(174,1,0);stroke:black;stroke-width:4.3px;"/>
                </g>
            </g>
            <g id="Knob19" serif:id="Knob" transform="matrix(0.968713,0,0,0.968713,-1574.31,332.506)">
                <path d="M2959.13,137.954C2966.21,128.55 2974.66,120.239 2984.19,113.32L2989.75,123.035L3011.33,110.687L3005.73,100.914C3020.28,94.478 3036.38,90.903 3053.3,90.903C3069.72,90.903 3085.35,94.269 3099.56,100.348L3094.57,109.614L3116.46,121.401L3121.25,112.495C3129.88,118.6 3137.65,125.835 3144.34,133.983L3136.46,139.38L3150.5,159.896L3158.02,154.747C3163.8,165.932 3167.84,178.16 3169.78,191.072L3160.58,191.072L3160.58,225.671L3169.88,225.671C3168.11,237.941 3164.44,249.602 3159.18,260.347L3152.97,256.549L3140,277.756L3145.96,281.403C3139.12,290.1 3131.09,297.813 3122.11,304.292L3118.74,298.401L3097.16,310.749L3100.53,316.631C3089.96,321.267 3078.59,324.395 3066.68,325.744L3066.68,318.855L3041.81,318.855L3041.81,325.943C3030.82,324.877 3020.27,322.298 3010.37,318.417L3013.92,311.822L2992.03,300.035L2988.31,306.94C2979.73,301.249 2971.93,294.463 2965.13,286.782L2972.03,282.056L2957.99,261.541L2950.68,266.545C2943.66,254.14 2938.84,240.341 2936.72,225.671L2947.39,225.671L2947.39,191.072L2936.81,191.072C2938.49,179.884 2941.75,169.21 2946.35,159.282L2955.51,164.887L2968.49,143.68L2959.13,137.954Z" style="fill:rgb(60,60,60);stroke:black;stroke-width:6.45px;"/>
                <g transform="matrix(1,0,0,1,197.829,33.7836)">
                    <rect x="2843.98" y="43.071" width="24.861" height="55.726" style="fill:rgb(174,1,0);stroke:black;stroke-width:4.3px;"/>
                </g>
            </g>
            <g id="Knob20" serif:id="Knob" transform="matrix(0.968713,0,0,0.968713,-1283.69,332.506)">
                <path d="M2959.13,137.954C2966.21,128.55 2974.66,120.239 2984.19,113.32L2989.75,123.035L3011.33,110.687L3005.73,100.914C3020.28,94.478 3036.38,90.903 3053.3,90.903C3069.72,90.903 3085.35,94.269 3099.56,100.348L3094.57,109.614L3116.46,121.401L3121.25,112.495C3129.88,118.6 3137.65,125.835 3144.34,133.983L3136.46,139.38L3150.5,159.896L3158.02,154.747C3163.8,165.932 3167.84,178.16 3169.78,191.072L3160.58,191.072L3160.58,225.671L3169.88,225.671C3168.11,237.941 3164.44,249.602 3159.18,260.347L3152.97,256.549L3140,277.756L3145.96,281.403C3139.12,290.1 3131.09,297.813 3122.11,304.292L3118.74,298.401L3097.16,310.749L3100.53,316.631C3089.96,321.267 3078.59,324.395 3066.68,325.744L3066.68,318.855L3041.81,318.855L3041.81,325.943C3030.82,324.877 3020.27,322.298 3010.37,318.417L3013.92,311.822L2992.03,300.035L2988.31,306.94C2979.73,301.249 2971.93,294.463 2965.13,286.782L2972.03,282.056L2957.99,261.541L2950.68,266.545C2943.66,254.14 2938.84,240.341 2936.72,225.671L2947.39,225.671L2947.39,191.072L2936.81,191.072C2938.49,179.884 2941.75,169.21 2946.35,159.282L2955.51,164.887L2968.49,143.68L2959.13,137.954Z" style="fill:rgb(60,60,60);stroke:black;stroke-width:6.45px;"/>
                <g transform="matrix(1,0,0,1,197.829,33.7836)">
                    <rect x="2843.98" y="43.071" width="24.861" height="55.726" style="fill:rgb(174,1,0);stroke:black;stroke-width:4.3px;"/>
                </g>
            </g>
            <g id="Knob21" serif:id="Knob" transform="matrix(0.968713,0,0,0.968713,-973.705,332.506)">
                <path d="M2959.13,137.954C2966.21,128.55 2974.66,120.239 2984.19,113.32L2989.75,123.035L3011.33,110.687L3005.73,100.914C3020.28,94.478 3036.38,90.903 3053.3,90.903C3069.72,90.903 3085.35,94.269 3099.56,100.348L3094.57,109.614L3116.46,121.401L3121.25,112.495C3129.88,118.6 3137.65,125.835 3144.34,133.983L3136.46,139.38L3150.5,159.896L3158.02,154.747C3163.8,165.932 3167.84,178.16 3169.78,191.072L3160.58,191.072L3160.58,225.671L3169.88,225.671C3168.11,237.941 3164.44,249.602 3159.18,260.347L3152.97,256.549L3140,277.756L3145.96,281.403C3139.12,290.1 3131.09,297.813 3122.11,304.292L3118.74,298.401L3097.16,310.749L3100.53,316.631C3089.96,321.267 3078.59,324.395 3066.68,325.744L3066.68,318.855L3041.81,318.855L3041.81,325.943C3030.82,324.877 3020.27,322.298 3010.37,318.417L3013.92,311.822L2992.03,300.035L2988.31,306.94C2979.73,301.249 2971.93,294.463 2965.13,286.782L2972.03,282.056L2957.99,261.541L2950.68,266.545C2943.66,254.14 2938.84,240.341 2936.72,225.671L2947.39,225.671L2947.39,191.072L2936.81,191.072C2938.49,179.884 2941.75,169.21 2946.35,159.282L2955.51,164.887L2968.49,143.68L2959.13,137.954Z" style="fill:rgb(60,60,60);stroke:black;stroke-width:6.45px;"/>
                <g transform="matrix(1,0,0,1,197.829,33.7836)">
                    <rect x="2843.98" y="43.071" width="24.861" height="55.726" style="fill:rgb(174,1,0);stroke:black;stroke-width:4.3px;"/>
                </g>
            </g>
            <g id="Knob22" serif:id="Knob" transform="matrix(0.968713,0,0,0.968713,-673.404,332.506)">
                <path d="M2959.13,137.954C2966.21,128.55 2974.66,120.239 2984.19,113.32L2989.75,123.035L3011.33,110.687L3005.73,100.914C3020.28,94.478 3036.38,90.903 3053.3,90.903C3069.72,90.903 3085.35,94.269 3099.56,100.348L3094.57,109.614L3116.46,121.401L3121.25,112.495C3129.88,118.6 3137.65,125.835 3144.34,133.983L3136.46,139.38L3150.5,159.896L3158.02,154.747C3163.8,165.932 3167.84,178.16 3169.78,191.072L3160.58,191.072L3160.58,225.671L3169.88,225.671C3168.11,237.941 3164.44,249.602 3159.18,260.347L3152.97,256.549L3140,277.756L3145.96,281.403C3139.12,290.1 3131.09,297.813 3122.11,304.292L3118.74,298.401L3097.16,310.749L3100.53,316.631C3089.96,321.267 3078.59,324.395 3066.68,325.744L3066.68,318.855L3041.81,318.855L3041.81,325.943C3030.82,324.877 3020.27,322.298 3010.37,318.417L3013.92,311.822L2992.03,300.035L2988.31,306.94C2979.73,301.249 2971.93,294.463 2965.13,286.782L2972.03,282.056L2957.99,261.541L2950.68,266.545C2943.66,254.14 2938.84,240.341 2936.72,225.671L2947.39,225.671L2947.39,191.072L2936.81,191.072C2938.49,179.884 2941.75,169.21 2946.35,159.282L2955.51,164.887L2968.49,143.68L2959.13,137.954Z" style="fill:rgb(60,60,60);stroke:black;stroke-width:6.45px;"/>
                <g transform="matrix(1,0,0,1,197.829,33.7836)">
                    <rect x="2843.98" y="43.071" width="24.861" height="55.726" style="fill:rgb(174,1,0);stroke:black;stroke-width:4.3px;"/>
                </g>
            </g>
            <g id="Knob23" serif:id="Knob" transform="matrix(0.968713,0,0,0.968713,-363.416,332.506)">
                <path d="M2959.13,137.954C2966.21,128.55 2974.66,120.239 2984.19,113.32L2989.75,123.035L3011.33,110.687L3005.73,100.914C3020.28,94.478 3036.38,90.903 3053.3,90.903C3069.72,90.903 3085.35,94.269 3099.56,100.348L3094.57,109.614L3116.46,121.401L3121.25,112.495C3129.88,118.6 3137.65,125.835 3144.34,133.983L3136.46,139.38L3150.5,159.896L3158.02,154.747C3163.8,165.932 3167.84,178.16 3169.78,191.072L3160.58,191.072L3160.58,225.671L3169.88,225.671C3168.11,237.941 3164.44,249.602 3159.18,260.347L3152.97,256.549L3140,277.756L3145.96,281.403C3139.12,290.1 3131.09,297.813 3122.11,304.292L3118.74,298.401L3097.16,310.749L3100.53,316.631C3089.96,321.267 3078.59,324.395 3066.68,325.744L3066.68,318.855L3041.81,318.855L3041.81,325.943C3030.82,324.877 3020.27,322.298 3010.37,318.417L3013.92,311.822L2992.03,300.035L2988.31,306.94C2979.73,301.249 2971.93,294.463 2965.13,286.782L2972.03,282.056L2957.99,261.541L2950.68,266.545C2943.66,254.14 2938.84,240.341 2936.72,225.671L2947.39,225.671L2947.39,191.072L2936.81,191.072C2938.49,179.884 2941.75,169.21 2946.35,159.282L2955.51,164.887L2968.49,143.68L2959.13,137.954Z" style="fill:rgb(60,60,60);stroke:black;stroke-width:6.45px;"/>
                <g transform="matrix(1,0,0,1,197.829,33.7836)">
                    <rect x="2843.98" y="43.071" width="24.861" height="55.726" style="fill:rgb(174,1,0);stroke:black;stroke-width:4.3px;"/>
                </g>
            </g>
        </g>
        <g id="Button-Row-1" serif:id="Button Row 1" transform="matrix(1,0,0,1,133,-1)">
            <g id="Button" transform="matrix(0.562461,0,0,0.935359,17.7125,-499.645)">
                <path d="M956.635,2148.32L956.635,2293.31C956.635,2304.69 941.277,2313.92 922.36,2313.92L663.161,2313.92C644.244,2313.92 628.886,2304.69 628.886,2293.31L628.886,2148.32C628.886,2136.95 644.244,2127.71 663.161,2127.71L922.36,2127.71C941.277,2127.71 956.635,2136.95 956.635,2148.32Z" style="fill:rgb(60,60,60);stroke:black;stroke-width:8.1px;"/>
            </g>
            <g id="Button1" serif:id="Button" transform="matrix(0.562461,0,0,0.935359,329.712,-499.645)">
                <path d="M956.635,2148.32L956.635,2293.31C956.635,2304.69 941.277,2313.92 922.36,2313.92L663.161,2313.92C644.244,2313.92 628.886,2304.69 628.886,2293.31L628.886,2148.32C628.886,2136.95 644.244,2127.71 663.161,2127.71L922.36,2127.71C941.277,2127.71 956.635,2136.95 956.635,2148.32Z" style="fill:rgb(60,60,60);stroke:black;stroke-width:8.1px;"/>
            </g>
            <g id="Button2" serif:id="Button" transform="matrix(0.562461,0,0,0.935359,628.712,-499.645)">
                <path d="M956.635,2148.32L956.635,2293.31C956.635,2304.69 941.277,2313.92 922.36,2313.92L663.161,2313.92C644.244,2313.92 628.886,2304.69 628.886,2293.31L628.886,2148.32C628.886,2136.95 644.244,2127.71 663.161,2127.71L922.36,2127.71C941.277,2127.71 956.635,2136.95 956.635,2148.32Z" style="fill:rgb(60,60,60);stroke:black;stroke-width:8.1px;"/>
            </g>
            <g id="Button3" serif:id="Button" transform="matrix(0.562461,0,0,0.935359,940.712,-499.645)">
                <path d="M956.635,2148.32L956.635,2293.31C956.635,2304.69 941.277,2313.92 922.36,2313.92L663.161,2313.92C644.244,2313.92 628.886,2304.69 628.886,2293.31L628.886,2148.32C628.886,2136.95 644.244,2127.71 663.161,2127.71L922.36,2127.71C941.277,2127.71 956.635,2136.95 956.635,2148.32Z" style="fill:rgb(60,60,60);stroke:black;stroke-width:8.1px;"/>
            </g>
            <g id="Button4" serif:id="Button" transform="matrix(0.562461,0,0,0.935359,1230.71,-499.645)">
                <path d="M956.635,2148.32L956.635,2293.31C956.635,2304.69 941.277,2313.92 922.36,2313.92L663.161,2313.92C644.244,2313.92 628.886,2304.69 628.886,2293.31L628.886,2148.32C628.886,2136.95 644.244,2127.71 663.161,2127.71L922.36,2127.71C941.277,2127.71 956.635,2136.95 956.635,2148.32Z" style="fill:rgb(60,60,60);stroke:black;stroke-width:8.1px;"/>
            </g>
            <g id="Button5" serif:id="Button" transform="matrix(0.562461,0,0,0.935359,1542.71,-499.645)">
                <path d="M956.635,2148.32L956.635,2293.31C956.635,2304.69 941.277,2313.92 922.36,2313.92L663.161,2313.92C644.244,2313.92 628.886,2304.69 628.886,2293.31L628.886,2148.32C628.886,2136.95 644.244,2127.71 663.161,2127.71L922.36,2127.71C941.277,2127.71 956.635,2136.95 956.635,2148.32Z" style="fill:rgb(60,60,60);stroke:black;stroke-width:8.1px;"/>
            </g>
            <g id="Button6" serif:id="Button" transform="matrix(0.562461,0,0,0.935359,1841.71,-499.645)">
                <path d="M956.635,2148.32L956.635,2293.31C956.635,2304.69 941.277,2313.92 922.36,2313.92L663.161,2313.92C644.244,2313.92 628.886,2304.69 628.886,2293.31L628.886,2148.32C628.886,2136.95 644.244,2127.71 663.161,2127.71L922.36,2127.71C941.277,2127.71 956.635,2136.95 956.635,2148.32Z" style="fill:rgb(60,60,60);stroke:black;stroke-width:8.1px;"/>
            </g>
            <g id="Button7" serif:id="Button" transform="matrix(0.562461,0,0,0.935359,2153.71,-499.645)">
                <path d="M956.635,2148.32L956.635,2293.31C956.635,2304.69 941.277,2313.92 922.36,2313.92L663.161,2313.92C644.244,2313.92 628.886,2304.69 628.886,2293.31L628.886,2148.32C628.886,2136.95 644.244,2127.71 663.161,2127.71L922.36,2127.71C941.277,2127.71 956.635,2136.95 956.635,2148.32Z" style="fill:rgb(60,60,60);stroke:black;stroke-width:8.1px;"/>
            </g>
        </g>
        <g id="Button-Row-2" serif:id="Button Row 2" transform="matrix(1,0,0,1,133,244)">
            <g id="Button8" serif:id="Button" transform="matrix(0.562461,0,0,0.935359,17.7125,-499.645)">
                <path d="M956.635,2148.32L956.635,2293.31C956.635,2304.69 941.277,2313.92 922.36,2313.92L663.161,2313.92C644.244,2313.92 628.886,2304.69 628.886,2293.31L628.886,2148.32C628.886,2136.95 644.244,2127.71 663.161,2127.71L922.36,2127.71C941.277,2127.71 956.635,2136.95 956.635,2148.32Z" style="fill:rgb(60,60,60);stroke:black;stroke-width:8.1px;"/>
            </g>
            <g id="Button9" serif:id="Button" transform="matrix(0.562461,0,0,0.935359,329.712,-499.645)">
                <path d="M956.635,2148.32L956.635,2293.31C956.635,2304.69 941.277,2313.92 922.36,2313.92L663.161,2313.92C644.244,2313.92 628.886,2304.69 628.886,2293.31L628.886,2148.32C628.886,2136.95 644.244,2127.71 663.161,2127.71L922.36,2127.71C941.277,2127.71 956.635,2136.95 956.635,2148.32Z" style="fill:rgb(60,60,60);stroke:black;stroke-width:8.1px;"/>
            </g>
            <g id="Button10" serif:id="Button" transform="matrix(0.562461,0,0,0.935359,628.712,-499.645)">
                <path d="M956.635,2148.32L956.635,2293.31C956.635,2304.69 941.277,2313.92 922.36,2313.92L663.161,2313.92C644.244,2313.92 628.886,2304.69 628.886,2293.31L628.886,2148.32C628.886,2136.95 644.244,2127.71 663.161,2127.71L922.36,2127.71C941.277,2127.71 956.635,2136.95 956.635,2148.32Z" style="fill:rgb(60,60,60);stroke:black;stroke-width:8.1px;"/>
            </g>
            <g id="Button11" serif:id="Button" transform="matrix(0.562461,0,0,0.935359,940.712,-499.645)">
                <path d="M956.635,2148.32L956.635,2293.31C956.635,2304.69 941.277,2313.92 922.36,2313.92L663.161,2313.92C644.244,2313.92 628.886,2304.69 628.886,2293.31L628.886,2148.32C628.886,2136.95 644.244,2127.71 663.161,2127.71L922.36,2127.71C941.277,2127.71 956.635,2136.95 956.635,2148.32Z" style="fill:rgb(60,60,60);stroke:black;stroke-width:8.1px;"/>
            </g>
            <g id="Button12" serif:id="Button" transform="matrix(0.562461,0,0,0.935359,1230.71,-499.645)">
                <path d="M956.635,2148.32L956.635,2293.31C956.635,2304.69 941.277,2313.92 922.36,2313.92L663.161,2313.92C644.244,2313.92 628.886,2304.69 628.886,2293.31L628.886,2148.32C628.886,2136.95 644.244,2127.71 663.161,2127.71L922.36,2127.71C941.277,2127.71 956.635,2136.95 956.635,2148.32Z" style="fill:rgb(60,60,60);stroke:black;stroke-width:8.1px;"/>
            </g>
            <g id="Button13" serif:id="Button" transform="matrix(0.562461,0,0,0.935359,1542.71,-499.645)">
                <path d="M956.635,2148.32L956.635,2293.31C956.635,2304.69 941.277,2313.92 922.36,2313.92L663.161,2313.92C644.244,2313.92 628.886,2304.69 628.886,2293.31L628.886,2148.32C628.886,2136.95 644.244,2127.71 663.161,2127.71L922.36,2127.71C941.277,2127.71 956.635,2136.95 956.635,2148.32Z" style="fill:rgb(60,60,60);stroke:black;stroke-width:8.1px;"/>
            </g>
            <g id="Button14" serif:id="Button" transform="matrix(0.562461,0,0,0.935359,1841.71,-499.645)">
                <path d="M956.635,2148.32L956.635,2293.31C956.635,2304.69 941.277,2313.92 922.36,2313.92L663.161,2313.92C644.244,2313.92 628.886,2304.69 628.886,2293.31L628.886,2148.32C628.886,2136.95 644.244,2127.71 663.161,2127.71L922.36,2127.71C941.277,2127.71 956.635,2136.95 956.635,2148.32Z" style="fill:rgb(60,60,60);stroke:black;stroke-width:8.1px;"/>
            </g>
            <g id="Button15" serif:id="Button" transform="matrix(0.562461,0,0,0.935359,2153.71,-499.645)">
                <path d="M956.635,2148.32L956.635,2293.31C956.635,2304.69 941.277,2313.92 922.36,2313.92L663.161,2313.92C644.244,2313.92 628.886,2304.69 628.886,2293.31L628.886,2148.32C628.886,2136.95 644.244,2127.71 663.161,2127.71L922.36,2127.71C941.277,2127.71 956.635,2136.95 956.635,2148.32Z" style="fill:rgb(60,60,60);stroke:black;stroke-width:8.1px;"/>
            </g>
        </g>
        <g id="Button-Row-3" serif:id="Button Row 3" transform="matrix(1,0,0,1,133,490)">
            <g id="Button16" serif:id="Button" transform="matrix(0.562461,0,0,0.935359,17.7125,-499.645)">
                <path d="M956.635,2148.32L956.635,2293.31C956.635,2304.69 941.277,2313.92 922.36,2313.92L663.161,2313.92C644.244,2313.92 628.886,2304.69 628.886,2293.31L628.886,2148.32C628.886,2136.95 644.244,2127.71 663.161,2127.71L922.36,2127.71C941.277,2127.71 956.635,2136.95 956.635,2148.32Z" style="fill:rgb(60,60,60);stroke:black;stroke-width:8.1px;"/>
            </g>
            <g id="Button17" serif:id="Button" transform="matrix(0.562461,0,0,0.935359,329.712,-499.645)">
                <path d="M956.635,2148.32L956.635,2293.31C956.635,2304.69 941.277,2313.92 922.36,2313.92L663.161,2313.92C644.244,2313.92 628.886,2304.69 628.886,2293.31L628.886,2148.32C628.886,2136.95 644.244,2127.71 663.161,2127.71L922.36,2127.71C941.277,2127.71 956.635,2136.95 956.635,2148.32Z" style="fill:rgb(60,60,60);stroke:black;stroke-width:8.1px;"/>
            </g>
            <g id="Button18" serif:id="Button" transform="matrix(0.562461,0,0,0.935359,628.712,-499.645)">
                <path d="M956.635,2148.32L956.635,2293.31C956.635,2304.69 941.277,2313.92 922.36,2313.92L663.161,2313.92C644.244,2313.92 628.886,2304.69 628.886,2293.31L628.886,2148.32C628.886,2136.95 644.244,2127.71 663.161,2127.71L922.36,2127.71C941.277,2127.71 956.635,2136.95 956.635,2148.32Z" style="fill:rgb(60,60,60);stroke:black;stroke-width:8.1px;"/>
            </g>
            <g id="Button19" serif:id="Button" transform="matrix(0.562461,0,0,0.935359,940.712,-499.645)">
                <path d="M956.635,2148.32L956.635,2293.31C956.635,2304.69 941.277,2313.92 922.36,2313.92L663.161,2313.92C644.244,2313.92 628.886,2304.69 628.886,2293.31L628.886,2148.32C628.886,2136.95 644.244,2127.71 663.161,2127.71L922.36,2127.71C941.277,2127.71 956.635,2136.95 956.635,2148.32Z" style="fill:rgb(60,60,60);stroke:black;stroke-width:8.1px;"/>
            </g>
            <g id="Button20" serif:id="Button" transform="matrix(0.562461,0,0,0.935359,1230.71,-499.645)">
                <path d="M956.635,2148.32L956.635,2293.31C956.635,2304.69 941.277,2313.92 922.36,2313.92L663.161,2313.92C644.244,2313.92 628.886,2304.69 628.886,2293.31L628.886,2148.32C628.886,2136.95 644.244,2127.71 663.161,2127.71L922.36,2127.71C941.277,2127.71 956.635,2136.95 956.635,2148.32Z" style="fill:rgb(60,60,60);stroke:black;stroke-width:8.1px;"/>
            </g>
            <g id="Button21" serif:id="Button" transform="matrix(0.562461,0,0,0.935359,1542.71,-499.645)">
                <path d="M956.635,2148.32L956.635,2293.31C956.635,2304.69 941.277,2313.92 922.36,2313.92L663.161,2313.92C644.244,2313.92 628.886,2304.69 628.886,2293.31L628.886,2148.32C628.886,2136.95 644.244,2127.71 663.161,2127.71L922.36,2127.71C941.277,2127.71 956.635,2136.95 956.635,2148.32Z" style="fill:rgb(60,60,60);stroke:black;stroke-width:8.1px;"/>
            </g>
            <g id="Button22" serif:id="Button" transform="matrix(0.562461,0,0,0.935359,1841.71,-499.645)">
                <path d="M956.635,2148.32L956.635,2293.31C956.635,2304.69 941.277,2313.92 922.36,2313.92L663.161,2313.92C644.244,2313.92 628.886,2304.69 628.886,2293.31L628.886,2148.32C628.886,2136.95 644.244,2127.71 663.161,2127.71L922.36,2127.71C941.277,2127.71 956.635,2136.95 956.635,2148.32Z" style="fill:rgb(60,60,60);stroke:black;stroke-width:8.1px;"/>
            </g>
            <g id="Button23" serif:id="Button" transform="matrix(0.562461,0,0,0.935359,2153.71,-499.645)">
                <path d="M956.635,2148.32L956.635,2293.31C956.635,2304.69 941.277,2313.92 922.36,2313.92L663.161,2313.92C644.244,2313.92 628.886,2304.69 628.886,2293.31L628.886,2148.32C628.886,2136.95 644.244,2127.71 663.161,2127.71L922.36,2127.71C941.277,2127.71 956.635,2136.95 956.635,2148.32Z" style="fill:rgb(60,60,60);stroke:black;stroke-width:8.1px;"/>
            </g>
        </g>
    </g>
</svg>
